<svg xmlns="http://www.w3.org/2000/svg" width="30" height="20" viewBox="0 0 30 20" fill="none" data-v-4ded4140=""><path d="M28.3333 16.6665H1.66669C0.746201 16.6665 0 17.4127 0 18.3332C0 19.2537 0.7462 19.9999 1.66669 19.9999H28.3333C29.2538 19.9999 30 19.2537 30 18.3332C30 17.4127 29.2538 16.6665 28.3333 16.6665Z" fill="#24252C" data-v-4ded4140=""></path><path d="M28.3333 8.33325H12.4435C11.5231 8.33325 10.7769 9.07945 10.7769 9.99993C10.7769 10.9204 11.5231 11.6666 12.4435 11.6666H28.3333C29.2538 11.6666 30 10.9204 30 9.99993C30 9.07945 29.2538 8.33325 28.3333 8.33325Z" fill="#24252C" data-v-4ded4140=""></path><path d="M28.3333 0H1.66669C0.746201 0 0 0.7462 0 1.66669C0 2.58717 0.7462 3.33337 1.66669 3.33337H28.3333C29.2538 3.33337 30 2.58717 30 1.66669C30 0.7462 29.2538 0 28.3333 0Z" fill="#24252C" data-v-4ded4140=""></path></svg>