<svg xmlns="http://www.w3.org/2000/svg" version="1.1" xmlns:xlink="http://www.w3.org/1999/xlink" width="258" height="258" x="0" y="0" viewBox="0 0 100 100" style="enable-background:new 0 0 512 512" xml:space="preserve" class=""><g><path d="M75.64 30.292H51.53v14.866h10.363v-6.441l13.748-3.2z" fill="#000000" opacity="1" data-original="#000000"></path><path d="M64.893 41.099v47.455h22.496V35.861zm9.248 37.168h-4v-4h4zm0-8.75h-4v-4h4zm0-8.75h-4v-4h4zm0-8.75h-4v-4h4zm8 17.5h-4v-4h4zm0-8.75h-4v-4h4zm0-8.75h-4v-4h4zM39.396 45.158h9.133V29.413L37.45 18.333H18.823v14.95h20.573zM27.876 28.13h-4v-4h4zm8 0h-4v-4h4z" fill="#000000" opacity="1" data-original="#000000"></path><path d="M13.9 88.554h22.496V36.283H13.899zm13.248-45.662h4v4h-4zm0 8.75h4v4h-4zm0 8.75h4v4h-4zm0 8.75h4v4h-4zm-8-26.25h4v4h-4zm0 8.75h4v4h-4zm0 8.75h4v4h-4zm0 8.75h4v4h-4zM39.396 88.554h22.497V48.158H39.396zm13.248-33.787h4v4h-4zm0 8.75h4v4h-4zm-8-8.75h4v4h-4zm0 8.75h4v4h-4zm0 8.75h4v4h-4z" fill="#000000" opacity="1" data-original="#000000"></path></g></svg>