<svg xmlns="http://www.w3.org/2000/svg" width="30" height="30" viewBox="0 0 30 30" fill="none"><path fill-rule="evenodd" clip-rule="evenodd" d="M3.34675 0.0446667C1.70993 0.319867 0.304447 1.75879 0.0492345 3.42067C0.00693378 3.69611 -0.00749891 7.45208 0.00358962 15.2686L0.0198997 26.7133L0.185054 27.1828C0.646079 28.4932 1.52612 29.3736 2.83603 29.8348L3.30539 30H15.01H26.7145L27.1839 29.8343C28.5382 29.3561 29.472 28.3813 29.8923 27.0068C29.9952 26.6702 30 26.1385 30 14.9752V3.29572L29.8348 2.8262C29.3738 1.51581 28.4938 0.635447 27.1839 0.174256L26.7145 0.00904138L15.186 0.000707301C8.67852 -0.00398796 3.52212 0.0151452 3.34675 0.0446667ZM15.9818 5.72534C18.278 6.19945 19.8817 8.29253 19.7413 10.6321C19.6971 11.3679 19.5885 11.7822 19.2643 12.4515C18.8002 13.4095 18.051 14.1582 17.0927 14.6214C16.4685 14.9232 15.9491 15.0594 15.25 15.1047C13.2691 15.2331 11.331 13.98 10.6019 12.0993C9.23523 8.57437 12.2843 4.96195 15.9818 5.72534ZM14.6129 8.08559C13.9463 8.19657 13.2432 8.72268 12.9352 9.34087C12.3704 10.4748 12.845 11.897 13.9725 12.4488C15.3817 13.1385 17.0427 12.2782 17.292 10.7295C17.5404 9.18669 16.163 7.82741 14.6129 8.08559ZM10.8633 15.1262C10.9867 15.1604 11.2938 15.3194 11.5458 15.4794C13.083 16.4557 14.9245 16.7388 16.6867 16.2696C17.2559 16.1181 18.0336 15.7783 18.4309 15.5077C19.187 14.9927 19.7071 14.9443 20.1827 15.3446C20.4026 15.5297 20.6409 16.0168 20.6416 16.2829C20.642 16.3889 20.6063 16.5605 20.5624 16.6644C20.3831 17.0887 19.3367 17.8806 18.4889 18.2337C17.9654 18.4517 16.9118 18.7286 16.374 18.7894C16.1724 18.8123 16.0073 18.8472 16.0073 18.8672C16.0073 18.8871 16.8364 19.7362 17.8497 20.7542C19.3894 22.301 19.7025 22.6435 19.7561 22.8397C19.8403 23.148 19.8378 23.2092 19.7285 23.5301C19.5311 24.1098 18.8569 24.4865 18.2878 24.3352C18.0649 24.2759 17.8388 24.0755 16.5558 22.7999C15.2419 21.4936 15.0673 21.3397 14.9629 21.3956C14.8984 21.4302 14.2449 22.0659 13.5107 22.8085C12.0535 24.2822 11.8527 24.4314 11.3953 24.3798C10.9842 24.3335 10.6096 24.0705 10.4191 23.6946C10.2361 23.3337 10.217 23.0803 10.3488 22.7645C10.4089 22.6203 11.0611 21.9206 12.2702 20.7029L14.1006 18.8596L13.4703 18.7571C12.1569 18.5436 11.1615 18.1543 10.3216 17.5255C9.77839 17.1188 9.5876 16.9195 9.46879 16.6351C9.29965 16.23 9.38513 15.8502 9.73492 15.4527C10.0524 15.0919 10.3891 14.9944 10.8633 15.1262Z" fill="#2D6D6D"></path></svg>