<svg xmlns="http://www.w3.org/2000/svg" width="20" height="21" viewBox="0 0 20 21" fill="none"><path fill-rule="evenodd" clip-rule="evenodd" d="M15.3367 0.0430967C14.794 0.140482 14.2591 0.359081 13.7622 0.68664C13.5169 0.848365 1.94436 12.6143 1.84741 12.8006C1.79854 12.8946 0.125698 18.9677 0.020224 19.4341C-0.0843116 19.8966 0.228161 20.3519 0.68614 20.4043C0.844976 20.4224 1.32747 20.2928 4.10685 19.4849C5.88653 18.9676 7.39065 18.5188 7.44933 18.4875C7.59209 18.4114 7.75656 18.2296 7.80762 18.0916C7.86954 17.9244 7.85793 17.5987 7.78494 17.4536C7.7496 17.3834 6.80667 16.3848 5.68958 15.2345L3.65848 13.1431L8.29488 8.40956L12.9313 3.67602L14.6612 5.44361L16.3911 7.2112L12.7841 10.8716C10.1718 13.5226 9.16107 14.573 9.11908 14.6804C9.00782 14.9653 9.06975 15.3241 9.26822 15.5445C9.47964 15.7793 9.88429 15.8535 10.1727 15.7104C10.3895 15.6028 19.1147 6.68284 19.319 6.35987C19.8077 5.58745 20.0355 4.75764 19.9955 3.89546C19.9478 2.86776 19.5646 1.96858 18.8585 1.22769C18.3229 0.665726 17.6251 0.262614 16.8798 0.0846453C16.4908 -0.00827022 15.7362 -0.0285456 15.3367 0.0430967ZM16.5084 1.64038C17.6733 1.88923 18.5051 3.00334 18.4303 4.21476C18.3924 4.82968 18.1684 5.34698 17.7326 5.82629L17.5104 6.07067L15.7791 4.30564L14.0477 2.54056L14.1834 2.39592C14.3713 2.19572 14.7555 1.91989 15.0163 1.79799C15.4613 1.58997 16.004 1.53266 16.5084 1.64038ZM5.55162 17.3904C5.52038 17.4198 1.93259 18.4624 1.91684 18.4466C1.91148 18.4412 2.13576 17.5991 2.41528 16.5751C2.69476 15.5511 2.92345 14.6996 2.92345 14.6828C2.92345 14.666 3.52119 15.2623 4.25176 16.0079C4.98234 16.7535 5.56726 17.3756 5.55162 17.3904Z" fill="white"></path></svg>