<svg xmlns="http://www.w3.org/2000/svg" width="20" height="21" viewBox="0 0 20 21" fill="none"><path fill-rule="evenodd" clip-rule="evenodd" d="M4.21935 0.0427783C3.7473 0.225961 3.02241 0.859854 2.16758 1.83698C1.31237 2.81453 0.461046 4.00446 0.151737 4.65462L0 4.9735L0.0482592 5.3959C0.430874 8.74636 3.19057 13.1227 6.89227 16.2491C9.5026 18.4537 12.3209 19.8794 14.6422 20.1693C15.0247 20.2171 15.0472 20.2152 15.2885 20.1154C16.2736 19.708 18.5982 17.8194 19.4778 16.7118C20.0177 16.032 20.1113 15.6813 19.885 15.1849C19.7128 14.8072 19.4885 14.6045 18.5246 13.9551C16.4871 12.5825 15.0255 11.8219 14.4253 11.8219C13.9341 11.8219 13.6694 12.0113 12.9113 12.9051C12.6205 13.2478 12.3586 13.5339 12.3291 13.541C12.2403 13.5622 11.5266 13.266 11.0233 12.999C9.33686 12.1043 8.0244 10.7788 7.14644 9.0834C6.88073 8.57034 6.58638 7.84646 6.60755 7.75828C6.61451 7.72929 6.89456 7.46707 7.22984 7.17553C8.11663 6.40446 8.30533 6.13845 8.30712 5.65686C8.3095 5.02355 7.61028 3.63591 6.24236 1.55901C5.88029 1.00929 5.51801 0.50815 5.40965 0.407206C5.05267 0.0745025 4.54111 -0.082096 4.21935 0.0427783ZM10.6835 1.33142V2.0055L10.8814 2.00584C11.7494 2.00736 12.9022 2.29047 13.7973 2.72197C15.3262 3.45896 16.4813 4.60137 17.2262 6.11321C17.693 7.0606 17.8914 7.77387 17.9852 8.84115L18.0361 9.42045H18.6939H19.3518V9.23533C19.3518 8.9116 19.2706 8.1931 19.1799 7.71417C18.9332 6.41154 18.2464 4.92526 17.4293 3.92606C15.9362 2.10009 13.9354 0.990079 11.65 0.719813C11.3594 0.685435 11.023 0.657334 10.9025 0.657334H10.6835V1.33142ZM4.84142 1.84752C5.5083 2.79857 6.25152 4.06201 6.73111 5.05996C6.86472 5.33802 6.97416 5.57786 6.97424 5.59295C6.97437 5.60803 6.74474 5.81657 6.46394 6.05634C5.75535 6.66146 5.32489 7.08642 5.24229 7.2624C5.1441 7.4715 5.18011 7.73772 5.39465 8.38998C5.84507 9.75926 6.85368 11.3414 7.95885 12.4121C9.15241 13.5685 10.6406 14.4679 12.0322 14.8739C12.4293 14.9898 12.6152 15.006 12.7877 14.9396C12.9564 14.8748 13.3107 14.5156 13.8993 13.8125C14.1952 13.4592 14.4506 13.1701 14.467 13.1703C14.4833 13.1703 14.7218 13.281 14.9968 13.416C15.9874 13.9026 17.2311 14.6496 18.1621 15.3173L18.6452 15.6637L18.3078 16.0373C17.5714 16.8527 16.0936 18.1023 15.1771 18.6845L14.8989 18.8612L14.6145 18.8132C10.9358 18.1925 6.373 14.7707 3.57814 10.5369C2.39371 8.74265 1.65094 7.01303 1.39247 5.44734L1.34513 5.16065L1.49012 4.91937C1.99734 4.07524 3.29363 2.50176 4.1187 1.72867C4.32557 1.53487 4.49802 1.37566 4.50194 1.3749C4.50586 1.37418 4.65864 1.58686 4.84142 1.84752ZM10.6835 4.68976V5.3638L11.0126 5.39156C11.9848 5.47355 12.8289 5.88251 13.5382 6.6152C14.2125 7.31174 14.588 8.13501 14.6688 9.09394L14.6963 9.42045H15.3571H16.0178V9.24679C16.0178 8.6656 15.7621 7.63589 15.4732 7.05394C14.9649 6.02967 14.0625 5.10727 13.0798 4.60718C12.4602 4.29192 11.766 4.09829 11.0629 4.04461L10.6835 4.01567V4.68976Z" fill="white"></path></svg>