<svg width="20" height="20" viewBox="0 0 20 20" fill="none" xmlns="http://www.w3.org/2000/svg">
    <path d="M8.2437 16.4718C3.70241 16.4718 0.0078125 12.7772 0.0078125 8.23588C0.0078125 3.69459 3.70241 0 8.2437 0C12.785 0 16.4796 3.69459 16.4796 8.23588C16.4796 12.7772 12.785 16.4718 8.2437 16.4718ZM8.2437 1.5613C4.56331 1.5613 1.56912 4.5555 1.56912 8.23588C1.56912 11.9163 4.56331 14.9105 8.2437 14.9105C11.9241 14.9105 14.9183 11.9163 14.9183 8.23588C14.9183 4.5555 11.9241 1.5613 8.2437 1.5613ZM19.7639 19.7713C20.0688 19.4665 20.0688 18.9722 19.7639 18.6673L16.2705 15.1739C15.9656 14.869 15.4713 14.869 15.1665 15.1739C14.8616 15.4788 14.8616 15.9731 15.1665 16.2779L18.6599 19.7713C18.8123 19.9238 19.0121 20 19.2119 20C19.4117 20 19.6114 19.9238 19.7639 19.7713Z" fill="#E02D1F"/>
    </svg>
    