<svg width="30" height="30" viewBox="0 0 30 30" fill="none" xmlns="http://www.w3.org/2000/svg">
<g clip-path="url(#clip0_210_1056)">
<path fill-rule="evenodd" clip-rule="evenodd" d="M17.4369 23.7741C17.8911 23.7787 18.2071 23.5589 18.3506 23.127C18.4171 22.9263 18.4388 22.7196 18.4395 22.5102C18.4408 21.3918 18.4408 20.2734 18.4389 19.155C18.4389 18.8456 18.4013 18.5414 18.2677 18.2564C18.0412 17.7739 17.5653 17.6462 17.1526 17.7495C16.9024 17.8127 16.6997 17.9569 16.5331 18.1432C16.4778 18.2057 16.4172 18.3268 16.4172 18.3268V15.6931H15.3416V23.6945H16.4172V23.2455L16.4589 23.2897C16.4814 23.3137 16.5075 23.3413 16.5213 23.3561C16.7681 23.624 17.0676 23.7708 17.4369 23.7741ZM17.233 18.8182C16.9882 18.8182 16.7898 19.0166 16.7898 19.2614V22.2102C16.7898 22.455 16.9882 22.6534 17.233 22.6534C17.4777 22.6534 17.6761 22.455 17.6761 22.2102V19.2614C17.6761 19.0166 17.4777 18.8182 17.233 18.8182Z" fill="white"/>
<path d="M9.92658 23.6952H8.71402V16.8405H7.45868V15.6938H11.1845V16.8379H9.92658V23.6952Z" fill="white"/>
<path d="M14.266 23.6958V17.7857L13.1917 17.7884V22.191C13.1917 22.2278 13.1917 22.2739 13.1712 22.2996C13.033 22.478 12.8685 22.6267 12.6525 22.7057C12.4649 22.7742 12.3155 22.6906 12.276 22.4957C12.2602 22.4187 12.2595 22.3378 12.2595 22.2588C12.2589 20.8072 12.2549 17.8312 12.253 17.7949H11.1819V17.8428C11.1818 18.3094 11.1808 22.0269 11.1833 22.7643C11.1839 22.9763 11.2063 23.1869 11.2945 23.3838C11.3893 23.597 11.5466 23.732 11.781 23.7708C11.9528 23.8005 12.1207 23.7814 12.2839 23.7254C12.6183 23.6102 12.8803 23.393 13.1114 23.1323C13.1177 23.1251 13.1242 23.118 13.1313 23.1103L13.1456 23.095L13.1923 23.0454V23.6958H14.266Z" fill="white"/>
<path fill-rule="evenodd" clip-rule="evenodd" d="M22.3234 22.902C22.1371 23.4477 21.752 23.7505 21.1872 23.8334C20.837 23.8848 20.49 23.8775 20.1616 23.7288C19.712 23.526 19.4572 23.1594 19.3479 22.6926C19.2973 22.4754 19.2722 22.2476 19.2696 22.0245C19.2622 21.2681 19.2641 20.5102 19.2661 19.7537L19.267 19.3953C19.2676 18.9371 19.3769 18.5145 19.6909 18.1636C20.049 17.7628 20.5072 17.6133 21.0305 17.6469C21.1878 17.6568 21.3485 17.6824 21.4979 17.7318C22.0067 17.899 22.2786 18.2802 22.3852 18.7857C22.4261 18.9806 22.4412 19.1827 22.4445 19.3821C22.4531 19.8495 22.4412 20.8797 22.4412 20.8797H20.3814V22.3562C20.3814 22.6215 20.596 22.8361 20.8613 22.8361C21.1259 22.8361 21.3405 22.6215 21.3405 22.3562V21.5972H22.4471C22.4471 21.5972 22.4636 22.4932 22.3234 22.902ZM21.3405 19.1353C21.3405 18.8706 21.1259 18.6554 20.8613 18.6554C20.596 18.6554 20.3814 18.8706 20.3814 19.1353V19.9641H21.3405V19.1353Z" fill="white"/>
<path d="M14.4008 11.2821C14.6516 11.2821 14.8556 11.0781 14.8556 10.8273V7.618C14.8556 7.36726 14.6516 7.16319 14.4008 7.16319C14.1501 7.16319 13.946 7.36719 13.946 7.618V10.8273C13.946 11.0781 14.1501 11.2821 14.4008 11.2821Z" fill="white"/>
<path fill-rule="evenodd" clip-rule="evenodd" d="M0 0H30V30H0V0ZM8.69165 13.8466C12.8968 13.7564 17.1032 13.7564 21.3077 13.8466C22.767 13.8775 23.9335 15.0704 23.9335 16.5297V23.0968C23.9335 24.5568 22.767 25.7496 21.3077 25.7806C17.1032 25.8708 12.8968 25.8708 8.69165 25.7806C7.2329 25.7496 6.06642 24.5568 6.06642 23.0968V16.5297C6.06642 15.0703 7.2329 13.8775 8.69165 13.8466ZM10.1609 4.15161C10.1609 4.15161 10.6615 6.27793 10.9004 7.28517C11.1393 6.27793 11.6405 4.15161 11.6405 4.15161H12.8931C12.8931 4.15161 11.9307 7.34343 11.5003 8.7669C11.4848 8.81838 11.4777 8.87426 11.4777 8.92818L11.4782 12.1922H10.3231L10.3236 8.92818C10.3236 8.87426 10.3165 8.81838 10.301 8.7669C9.87062 7.34343 8.90821 4.15161 8.90821 4.15161H10.1609ZM20.0047 12.1935L20.0051 6.25285H18.9046V10.658L18.9047 10.673C18.9052 10.7075 18.9056 10.7464 18.8881 10.7687C18.7462 10.9475 18.579 11.0992 18.3599 11.175C18.1801 11.2374 18.0421 11.1495 18.009 10.9628C17.9984 10.904 17.9936 10.8433 17.9936 10.7832V6.25285H16.9011V11.3321C16.9023 11.4804 16.9287 11.6334 16.9724 11.7754C17.1036 12.2017 17.4542 12.3318 17.8659 12.2513C18.134 12.1989 18.3632 12.066 18.5656 11.8877C18.6433 11.8192 18.7163 11.7454 18.7934 11.6674L18.7937 11.667L18.7965 11.6642C18.8317 11.6287 18.8676 11.5924 18.9053 11.5553L18.904 12.1935H20.0047ZM14.4008 6.10415C13.5303 6.10415 12.8246 6.80983 12.8246 7.68034V10.765C12.8246 11.6355 13.5303 12.3412 14.4008 12.3412C15.2713 12.3412 15.977 11.6355 15.977 10.765V7.68034C15.9771 6.80983 15.2713 6.10415 14.4008 6.10415Z" fill="white"/>
</g>
<defs>
<clipPath id="clip0_210_1056">
<rect width="30" height="30" rx="4" fill="white"/>
</clipPath>
</defs>
</svg>
